<svg id="Layer_2" data-name="Layer 2" xmlns="http://www.w3.org/2000/svg" viewBox="0 0 371 290.42">
  <defs>
    <style>
      .cls-1 {
        font-size: 11px;
        fill: #303882;
        font-family: EurostileBold, Eurostile;
      }
    </style>
  </defs>
  <title>jeghedder</title>
  <text class="cls-1" transform="translate(136.24 44.28) rotate(-24.6)">J</text>
  <text class="cls-1" transform="matrix(0.93, -0.37, 0.37, 0.93, 141.3, 41.96)">E</text>
  <text class="cls-1" transform="translate(146.74 39.78) rotate(-18.36)">G</text>
  <text class="cls-1" transform="translate(153.43 37.61) rotate(-15.87)"> </text>
  <text class="cls-1" transform="matrix(0.97, -0.23, 0.23, 0.97, 155.99, 36.82)">H</text>
  <text class="cls-1" transform="translate(163.18 35.14) rotate(-9.88)">E</text>
  <text class="cls-1" transform="matrix(0.99, -0.11, 0.11, 0.99, 168.94, 34.12)">D</text>
  <text class="cls-1" transform="translate(176.17 33.29) rotate(-2.83)">D</text>
  <text class="cls-1" transform="translate(183.41 32.92) rotate(0.93)">E</text>
  <text class="cls-1" transform="translate(189.28 32.97) rotate(3.68)">R</text>
  <text class="cls-1" transform="matrix(0.99, 0.11, -0.11, 0.99, 196.27, 33.47)"> </text>
  <text class="cls-1" transform="translate(198.95 33.73) rotate(8.26)">J</text>
  <text class="cls-1" transform="translate(204.48 34.52) rotate(11.18)">E</text>
  <text class="cls-1" transform="matrix(0.97, 0.25, -0.25, 0.97, 210.2, 35.62)">N</text>
  <text class="cls-1" transform="translate(217.91 37.64) rotate(18.83)">N</text>
  <text class="cls-1" transform="translate(225.47 40.24) rotate(22.58)">Y</text>
  <text class="cls-1" transform="matrix(0.91, 0.42, -0.42, 0.91, 231.55, 42.81)"> </text>
  <text class="cls-1" transform="translate(234 43.89) rotate(27.45)">O</text>
  <text class="cls-1" transform="translate(240.22 47.12) rotate(31.02)">G</text>
  <text class="cls-1" transform="translate(246.23 50.79) rotate(33.5)"> </text>
  <text class="cls-1" transform="translate(248.48 52.24) rotate(35.61)">J</text>
  <text class="cls-1" transform="matrix(0.78, 0.62, -0.62, 0.78, 253.04, 55.5)">E</text>
  <text class="cls-1" transform="matrix(0.75, 0.67, -0.67, 0.75, 257.62, 59.12)">G</text>
  <text class="cls-1" transform="translate(262.84 63.85) rotate(44.25)"> </text>
  <text class="cls-1" transform="matrix(0.69, 0.72, -0.72, 0.69, 264.78, 65.71)">L</text>
  <text class="cls-1" transform="translate(268.57 69.54) rotate(50.32)">Æ</text>
  <text class="cls-1" transform="matrix(0.58, 0.82, -0.82, 0.58, 275.15, 77.58)">S</text>
  <text class="cls-1" transform="matrix(0.53, 0.85, -0.85, 0.53, 278.91, 82.88)">E</text>
  <text class="cls-1" transform="translate(282.03 87.79) rotate(61.01)">R</text>
  <text class="cls-1" transform="translate(285.39 93.94) rotate(63.49)"> </text>
  <text class="cls-1" transform="translate(286.67 96.29) rotate(66.68)">M</text>
  <text class="cls-1" transform="translate(290.48 105.23) rotate(71.04)">U</text>
  <text class="cls-1" transform="translate(292.83 112.13) rotate(74.31)">L</text>
  <text class="cls-1" transform="translate(294.3 117.36) rotate(77.18)">T</text>
  <text class="cls-1" transform="matrix(0.19, 0.98, -0.98, 0.19, 295.55, 122.98)">I</text>
  <text class="cls-1" transform="translate(296.13 125.52) rotate(82.5)">M</text>
  <text class="cls-1" transform="translate(297.34 135.17) rotate(86.44)">E</text>
  <text class="cls-1" transform="translate(297.68 141.02) rotate(89.07)">D</text>
  <text class="cls-1" transform="translate(297.71 148.32) rotate(92.23)">I</text>
  <text class="cls-1" transform="matrix(-0.08, 1, -1, -0.08, 297.64, 150.93)">E</text>
  <text class="cls-1" transform="translate(297.22 156.77) rotate(97.72)">D</text>
  <text class="cls-1" transform="translate(296.22 163.97) rotate(101.07)">E</text>
  <text class="cls-1" transform="translate(295.11 169.71) rotate(104.24)">S</text>
  <text class="cls-1" transform="matrix(-0.29, 0.96, -0.96, -0.29, 293.47, 176.02)">I</text>
  <text class="cls-1" transform="matrix(-0.33, 0.95, -0.95, -0.33, 292.77, 178.54)">G</text>
  <text class="cls-1" transform="translate(290.52 185.13) rotate(112.9)">N</text>
</svg>
